<?xml version="1.0" encoding="UTF-8"?>
<!-- Generator: Adobe Illustrator 20.0.0, SVG Export Plug-In . SVG Version: 6.00 Build 0)  -->
<svg xmlns="http://www.w3.org/2000/svg" xmlns:xlink="http://www.w3.org/1999/xlink" id="Layer_1" x="0px" y="0px" viewBox="0 0 77.2 76.2" style="enable-background:new 0 0 77.2 76.2;" xml:space="preserve">
<style type="text/css">
	.st0{fill:#E8762C;}
	.st1{fill:#C72035;}
	.st2{fill:#59879B;}
	.st3{fill:#5B6591;}
	.st4{fill:#EB912C;}
	.st5{fill:#1F447E;}
	.st6{fill:#7099A6;}
</style>
<title>sparkle</title>
<g id="Layer_2">
	<g id="Layer_1-2">
		<polygon class="st0" points="51.4,35.9 40.7,35.9 40.7,24.3 36.6,24.3 36.6,35.9 26,35.9 26,40 36.6,40 36.6,51.5 40.7,51.5     40.7,40 51.4,40   "></polygon>
		<polygon class="st1" points="30,54.7 20.5,54.7 20.5,44.4 16.9,44.4 16.9,54.7 7.4,54.7 7.4,57.9 16.9,57.9 16.9,68.2 20.5,68.2     20.5,57.9 30,57.9   "></polygon>
		<polygon class="st2" points="69.9,17.7 60.4,17.7 60.4,7.4 56.8,7.4 56.8,17.7 47.3,17.7 47.3,20.9 56.8,20.9 56.8,31.2     60.4,31.2 60.4,20.9 69.9,20.9   "></polygon>
		<polygon class="st3" points="46.7,66.2 40.2,66.2 40.2,59 37.2,59 37.2,66.2 30.7,66.2 30.7,69 37.2,69 37.2,76.2 40.2,76.2     40.2,69 46.7,69   "></polygon>
		<polygon class="st4" points="30,17.7 20.4,17.7 20.4,7.4 17,7.4 17,17.7 7.4,17.7 7.4,20.8 17,20.8 17,31.2 20.4,31.2 20.4,20.8     30,20.8   "></polygon>
		<polygon class="st3" points="77.2,36.5 70.8,36.5 70.8,29.3 67.7,29.3 67.7,36.5 61.2,36.5 61.2,39.3 67.7,39.3 67.7,46.5     70.8,46.5 70.8,39.3 77.2,39.3   "></polygon>
		<polygon class="st5" points="69.9,54.7 60.4,54.7 60.4,44.4 56.8,44.4 56.8,54.7 47.3,54.7 47.3,57.9 56.8,57.9 56.8,68.2     60.4,68.2 60.4,57.9 69.9,57.9   "></polygon>
		<polygon class="st6" points="46.2,7.1 39.9,7.1 39.9,0 37.6,0 37.6,7.1 31.2,7.1 31.2,9.2 37.6,9.2 37.6,16.3 39.9,16.3 39.9,9.2     46.2,9.2   "></polygon>
		<polygon class="st6" points="15.1,36.8 8.7,36.8 8.7,29.9 6.4,29.9 6.4,36.8 0,36.8 0,39 6.4,39 6.4,46 8.7,46 8.7,39 15.1,38.9       "></polygon>
	</g>
</g>
</svg>
